<svg width="16" height="16" viewBox="0 0 16 16" fill="none" xmlns="http://www.w3.org/2000/svg">
<path d="M8.05955 6.5C8.33569 6.5 8.55955 6.72386 8.55955 7V7.77559C8.55955 8.97016 8.37343 10.1574 8.00788 11.2947L6.67676 15.4359C6.59226 15.6988 6.31064 15.8434 6.04775 15.7589C5.78485 15.6744 5.64023 15.3928 5.72474 15.1299L7.05585 10.9887C7.38961 9.95031 7.55955 8.86628 7.55955 7.77559V7C7.55955 6.72386 7.78341 6.5 8.05955 6.5Z" fill="#DD0483"/>
<path d="M6.05956 7C6.05956 5.89543 6.95499 5 8.05956 5C9.16413 5 10.0596 5.89543 10.0596 7C10.0596 7.27614 9.83571 7.5 9.55956 7.5C9.28342 7.5 9.05956 7.27614 9.05956 7C9.05956 6.44772 8.61185 6 8.05956 6C7.50728 6 7.05956 6.44772 7.05956 7V7.33234C7.05956 7.74064 7.03782 8.14812 6.99459 8.55308C6.96528 8.82766 6.71892 9.02649 6.44434 8.99718C6.16976 8.96786 5.97093 8.72151 6.00024 8.44692C6.03971 8.07719 6.05956 7.70514 6.05956 7.33234V7ZM9.56883 8.00017C9.84488 8.00732 10.0629 8.23691 10.0557 8.51296C10.0263 9.64813 9.82886 10.7732 9.46942 11.8516L8.20281 15.6514C8.11549 15.9134 7.83233 16.0549 7.57036 15.9676C7.30839 15.8803 7.16681 15.5971 7.25413 15.3352L8.52074 11.5353C8.84892 10.5508 9.02917 9.5235 9.05604 8.48704C9.06319 8.21099 9.29278 7.99301 9.56883 8.00017ZM6.21347 10.1152C6.4772 10.197 6.62465 10.4772 6.5428 10.7409L5.23987 14.9393C5.15802 15.203 4.87787 15.3505 4.61413 15.2686C4.3504 15.1868 4.20295 14.9066 4.2848 14.6429L5.58774 10.4445C5.66959 10.1808 5.94974 10.0333 6.21347 10.1152Z" fill="#DD0483"/>
<path d="M4.75888 5.83338C5.23912 4.47466 6.53489 3.5 8.0596 3.5C9.99259 3.5 11.5596 5.067 11.5596 7C11.5596 7.27614 11.3357 7.5 11.0596 7.5C10.7835 7.5 10.5596 7.27614 10.5596 7C10.5596 5.61929 9.44031 4.5 8.0596 4.5C6.97186 4.5 6.04516 5.19496 5.70172 6.16662C5.6097 6.42698 5.32404 6.56344 5.06368 6.47142C4.80332 6.3794 4.66686 6.09373 4.75888 5.83338ZM5.05948 7.5024C5.3343 7.52942 5.53518 7.77411 5.50816 8.04892C5.44054 8.73661 5.30652 9.41698 5.10749 10.0804L3.8859 14.1524C3.80655 14.4169 3.52781 14.567 3.26331 14.4876C2.99882 14.4083 2.84873 14.1295 2.92808 13.865L4.14966 9.79307C4.33013 9.19152 4.45165 8.57462 4.51296 7.95108C4.53997 7.67626 4.78466 7.47538 5.05948 7.5024ZM11.0596 8.15C11.3357 8.15 11.5596 8.37386 11.5596 8.65C11.5596 9.9304 11.3458 11.2018 10.9269 12.4118L9.83803 15.5575C9.74771 15.8184 9.46294 15.9568 9.20199 15.8664C8.94104 15.7761 8.80272 15.4913 8.89305 15.2304L9.98195 12.0847C10.3644 10.9799 10.5596 9.81907 10.5596 8.65C10.5596 8.37386 10.7835 8.15 11.0596 8.15Z" fill="#DD0483"/>
<path d="M3.90182 4.22187C4.79794 2.88315 6.32551 2 8.05955 2C8.4173 2 8.7668 2.03765 9.10413 2.10938C9.37423 2.16682 9.54663 2.43235 9.48919 2.70245C9.43176 2.97255 9.16623 3.14495 8.89613 3.08751C8.62676 3.03023 8.34696 3 8.05955 3C6.67318 3 5.45124 3.70488 4.73283 4.77813C4.57922 5.00761 4.26867 5.06911 4.0392 4.9155C3.80972 4.7619 3.74821 4.45135 3.90182 4.22187ZM10.6218 3.26669C10.8023 3.05774 11.1181 3.03471 11.327 3.21524C12.3873 4.13135 13.0596 5.48745 13.0596 7V8.5C13.0596 8.77614 12.8357 9 12.5596 9C12.2834 9 12.0596 8.77614 12.0596 8.5V7C12.0596 5.79015 11.523 4.70617 10.6732 3.97192C10.4643 3.79139 10.4412 3.47564 10.6218 3.26669ZM3.68107 5.84243C3.95425 5.88276 4.14301 6.13692 4.10268 6.4101C4.07429 6.60234 4.05955 6.7993 4.05955 7C4.05955 7.7105 3.95901 8.41742 3.76091 9.09975L2.62196 13.0228C2.54497 13.288 2.26758 13.4406 2.00239 13.3636C1.73719 13.2866 1.58463 13.0092 1.66162 12.744L2.80057 8.82094C2.97236 8.22922 3.05955 7.61616 3.05955 7C3.05955 6.75025 3.0779 6.50448 3.1134 6.26403C3.15374 5.99085 3.40789 5.80209 3.68107 5.84243ZM12.5628 9.50175C12.838 9.52484 13.0424 9.76663 13.0193 10.0418C12.9354 11.0421 12.7207 12.0285 12.3798 12.9756L11.635 15.0445C11.5414 15.3043 11.255 15.4391 10.9951 15.3456C10.7353 15.252 10.6005 14.9656 10.6941 14.7058L11.4389 12.6369C11.7502 11.7721 11.9462 10.8715 12.0228 9.9582C12.0459 9.68302 12.2877 9.47866 12.5628 9.50175Z" fill="#DD0483"/>
<path d="M4.80921 1.36988C5.76578 0.816541 6.87647 0.5 8.05957 0.5C11.6494 0.5 14.5596 3.41015 14.5596 7C14.5596 7.27614 14.3357 7.5 14.0596 7.5C13.7834 7.5 13.5596 7.27614 13.5596 7C13.5596 3.96243 11.0971 1.5 8.05957 1.5C7.05695 1.5 6.1184 1.76782 5.30994 2.23549C5.07091 2.37376 4.76504 2.29208 4.62677 2.05305C4.4885 1.81402 4.57018 1.50816 4.80921 1.36988ZM3.92081 2.62743C4.12657 2.8116 4.14408 3.12769 3.95992 3.33346C3.08872 4.30684 2.55957 5.59103 2.55957 7C2.55957 7.27614 2.33571 7.5 2.05957 7.5C1.78342 7.5 1.55957 7.27614 1.55957 7C1.55957 5.33555 2.18583 3.81618 3.21479 2.66654C3.39895 2.46078 3.71505 2.44327 3.92081 2.62743ZM1.91369 8.01867C2.17952 8.09344 2.33441 8.36954 2.25964 8.63537L1.48145 11.4023C1.40669 11.6681 1.13058 11.823 0.864755 11.7482C0.598926 11.6735 0.444038 11.3974 0.518802 11.1315L1.29699 8.36463C1.37176 8.0988 1.64786 7.94391 1.91369 8.01867ZM14.0636 8.5001C14.3397 8.5055 14.5591 8.7337 14.5537 9.00979C14.5244 10.5089 14.3931 12.0347 13.8274 13.5432L13.7574 13.7297C13.6605 13.9882 13.3723 14.1192 13.1137 14.0223C12.8552 13.9253 12.7242 13.6371 12.8211 13.3785L12.891 13.1921C13.3971 11.8425 13.5253 10.4511 13.5539 8.99021C13.5593 8.71412 13.7875 8.49469 14.0636 8.5001Z" fill="#DD0483"/>
</svg>
